<mxfile host="app.diagrams.net" modified="2023-08-01T07:00:53.181Z" agent="Mozilla/5.0 (Macintosh; Intel Mac OS X 10_15_6) AppleWebKit/537.36 (KHTML, like Gecko) Chrome/78.0.3904.108 Safari/537.36" etag="WfaQkPxAp9lE6DFClFfl" version="21.6.6" type="github">
  <diagram name="第 1 页" id="HjcUYGO30nJuk45t63Vl">
    <mxGraphModel dx="3541" dy="1263" grid="1" gridSize="10" guides="1" tooltips="1" connect="1" arrows="1" fold="1" page="1" pageScale="1" pageWidth="827" pageHeight="1169" math="0" shadow="0">
      <root>
        <mxCell id="0" />
        <mxCell id="1" parent="0" />
        <mxCell id="xOnKtEDKV3KdFgjS1WJt-30" value="" style="rounded=0;whiteSpace=wrap;html=1;dashed=1;" vertex="1" parent="1">
          <mxGeometry x="1162.5" y="1060" width="97.5" height="195" as="geometry" />
        </mxCell>
        <mxCell id="xOnKtEDKV3KdFgjS1WJt-15" value="" style="rounded=0;whiteSpace=wrap;html=1;dashed=1;" vertex="1" parent="1">
          <mxGeometry x="1355" y="720" width="75" height="195" as="geometry" />
        </mxCell>
        <mxCell id="xOnKtEDKV3KdFgjS1WJt-13" value="" style="rounded=0;whiteSpace=wrap;html=1;dashed=1;" vertex="1" parent="1">
          <mxGeometry x="1162.5" y="715" width="97.5" height="205" as="geometry" />
        </mxCell>
        <mxCell id="hmlYSEphnml5yRxJCa9B-29" value="" style="rounded=0;whiteSpace=wrap;html=1;dashed=1;dashPattern=1 1;" parent="1" vertex="1">
          <mxGeometry x="1355" y="465" width="65" height="150" as="geometry" />
        </mxCell>
        <mxCell id="hmlYSEphnml5yRxJCa9B-22" value="" style="rounded=0;whiteSpace=wrap;html=1;dashed=1;" parent="1" vertex="1">
          <mxGeometry x="1170" y="460" width="85" height="175" as="geometry" />
        </mxCell>
        <mxCell id="hmlYSEphnml5yRxJCa9B-7" value="" style="rounded=0;whiteSpace=wrap;html=1;dashed=1;dashPattern=1 1;" parent="1" vertex="1">
          <mxGeometry x="1170" y="275" width="75" height="140" as="geometry" />
        </mxCell>
        <mxCell id="JorKWfMErrwngxVBuPZv-26" value="" style="rounded=0;whiteSpace=wrap;html=1;dashed=1;" parent="1" vertex="1">
          <mxGeometry x="640" y="40" width="150" height="250" as="geometry" />
        </mxCell>
        <mxCell id="JorKWfMErrwngxVBuPZv-3" value="" style="edgeStyle=orthogonalEdgeStyle;rounded=0;orthogonalLoop=1;jettySize=auto;html=1;" parent="1" source="JorKWfMErrwngxVBuPZv-1" target="JorKWfMErrwngxVBuPZv-2" edge="1">
          <mxGeometry relative="1" as="geometry" />
        </mxCell>
        <mxCell id="JorKWfMErrwngxVBuPZv-1" value="我的学员（91）" style="ellipse;whiteSpace=wrap;html=1;" parent="1" vertex="1">
          <mxGeometry x="-180" y="840" width="120" height="80" as="geometry" />
        </mxCell>
        <mxCell id="JorKWfMErrwngxVBuPZv-5" value="" style="edgeStyle=orthogonalEdgeStyle;rounded=0;orthogonalLoop=1;jettySize=auto;html=1;entryX=0;entryY=0.5;entryDx=0;entryDy=0;" parent="1" source="JorKWfMErrwngxVBuPZv-2" target="JorKWfMErrwngxVBuPZv-4" edge="1">
          <mxGeometry relative="1" as="geometry" />
        </mxCell>
        <mxCell id="JorKWfMErrwngxVBuPZv-11" style="edgeStyle=orthogonalEdgeStyle;rounded=0;orthogonalLoop=1;jettySize=auto;html=1;exitX=1;exitY=0.5;exitDx=0;exitDy=0;entryX=0;entryY=0.5;entryDx=0;entryDy=0;" parent="1" source="JorKWfMErrwngxVBuPZv-2" target="JorKWfMErrwngxVBuPZv-7" edge="1">
          <mxGeometry relative="1" as="geometry" />
        </mxCell>
        <mxCell id="JorKWfMErrwngxVBuPZv-13" style="edgeStyle=orthogonalEdgeStyle;rounded=0;orthogonalLoop=1;jettySize=auto;html=1;exitX=1;exitY=0.5;exitDx=0;exitDy=0;entryX=0;entryY=0.5;entryDx=0;entryDy=0;" parent="1" source="JorKWfMErrwngxVBuPZv-2" target="JorKWfMErrwngxVBuPZv-12" edge="1">
          <mxGeometry relative="1" as="geometry" />
        </mxCell>
        <mxCell id="JorKWfMErrwngxVBuPZv-2" value="学员画像" style="whiteSpace=wrap;html=1;" parent="1" vertex="1">
          <mxGeometry x="20" y="850" width="120" height="60" as="geometry" />
        </mxCell>
        <mxCell id="JorKWfMErrwngxVBuPZv-17" value="" style="edgeStyle=orthogonalEdgeStyle;rounded=0;orthogonalLoop=1;jettySize=auto;html=1;entryX=0;entryY=0.5;entryDx=0;entryDy=0;" parent="1" source="JorKWfMErrwngxVBuPZv-4" target="JorKWfMErrwngxVBuPZv-16" edge="1">
          <mxGeometry relative="1" as="geometry" />
        </mxCell>
        <mxCell id="JorKWfMErrwngxVBuPZv-22" style="edgeStyle=orthogonalEdgeStyle;rounded=0;orthogonalLoop=1;jettySize=auto;html=1;exitX=1;exitY=0.5;exitDx=0;exitDy=0;entryX=0;entryY=0.5;entryDx=0;entryDy=0;" parent="1" source="JorKWfMErrwngxVBuPZv-4" target="JorKWfMErrwngxVBuPZv-19" edge="1">
          <mxGeometry relative="1" as="geometry" />
        </mxCell>
        <mxCell id="JorKWfMErrwngxVBuPZv-23" style="edgeStyle=orthogonalEdgeStyle;rounded=0;orthogonalLoop=1;jettySize=auto;html=1;exitX=1;exitY=0.5;exitDx=0;exitDy=0;entryX=0;entryY=0.5;entryDx=0;entryDy=0;" parent="1" source="JorKWfMErrwngxVBuPZv-4" target="JorKWfMErrwngxVBuPZv-20" edge="1">
          <mxGeometry relative="1" as="geometry" />
        </mxCell>
        <mxCell id="JorKWfMErrwngxVBuPZv-4" value="基础信息" style="rounded=1;whiteSpace=wrap;html=1;" parent="1" vertex="1">
          <mxGeometry x="460" y="140" width="120" height="60" as="geometry" />
        </mxCell>
        <mxCell id="JorKWfMErrwngxVBuPZv-29" style="edgeStyle=orthogonalEdgeStyle;rounded=0;orthogonalLoop=1;jettySize=auto;html=1;exitX=1;exitY=0.5;exitDx=0;exitDy=0;" parent="1" source="JorKWfMErrwngxVBuPZv-7" target="JorKWfMErrwngxVBuPZv-28" edge="1">
          <mxGeometry relative="1" as="geometry" />
        </mxCell>
        <mxCell id="JorKWfMErrwngxVBuPZv-7" value="学习情况" style="rounded=1;whiteSpace=wrap;html=1;" parent="1" vertex="1">
          <mxGeometry x="460" y="820" width="120" height="60" as="geometry" />
        </mxCell>
        <mxCell id="JorKWfMErrwngxVBuPZv-12" value="整体情况" style="rounded=1;whiteSpace=wrap;html=1;" parent="1" vertex="1">
          <mxGeometry x="460" y="1060" width="120" height="60" as="geometry" />
        </mxCell>
        <mxCell id="JorKWfMErrwngxVBuPZv-16" value="基础信息" style="shape=hexagon;perimeter=hexagonPerimeter2;whiteSpace=wrap;html=1;fixedSize=1;rounded=1;" parent="1" vertex="1">
          <mxGeometry x="660" y="80" width="110" height="40" as="geometry" />
        </mxCell>
        <mxCell id="JorKWfMErrwngxVBuPZv-19" value="学术背景" style="shape=hexagon;perimeter=hexagonPerimeter2;whiteSpace=wrap;html=1;fixedSize=1;rounded=1;" parent="1" vertex="1">
          <mxGeometry x="660" y="150" width="110" height="40" as="geometry" />
        </mxCell>
        <mxCell id="JorKWfMErrwngxVBuPZv-20" value="考研目标" style="shape=hexagon;perimeter=hexagonPerimeter2;whiteSpace=wrap;html=1;fixedSize=1;rounded=1;" parent="1" vertex="1">
          <mxGeometry x="660" y="230" width="110" height="40" as="geometry" />
        </mxCell>
        <mxCell id="JorKWfMErrwngxVBuPZv-27" value="&lt;font color=&quot;#ff0000&quot;&gt;91提供页面&lt;/font&gt;" style="text;html=1;strokeColor=none;fillColor=none;align=center;verticalAlign=middle;whiteSpace=wrap;rounded=0;" parent="1" vertex="1">
          <mxGeometry x="652.5" y="50" width="125" height="30" as="geometry" />
        </mxCell>
        <mxCell id="xOnKtEDKV3KdFgjS1WJt-35" style="edgeStyle=orthogonalEdgeStyle;rounded=0;orthogonalLoop=1;jettySize=auto;html=1;exitX=1;exitY=0.5;exitDx=0;exitDy=0;entryX=0.002;entryY=0.089;entryDx=0;entryDy=0;entryPerimeter=0;" edge="1" parent="1" source="JorKWfMErrwngxVBuPZv-28" target="JorKWfMErrwngxVBuPZv-31">
          <mxGeometry relative="1" as="geometry" />
        </mxCell>
        <mxCell id="xOnKtEDKV3KdFgjS1WJt-36" style="edgeStyle=orthogonalEdgeStyle;rounded=0;orthogonalLoop=1;jettySize=auto;html=1;exitX=1;exitY=0.5;exitDx=0;exitDy=0;entryX=0.026;entryY=0.075;entryDx=0;entryDy=0;entryPerimeter=0;" edge="1" parent="1" source="JorKWfMErrwngxVBuPZv-28" target="JorKWfMErrwngxVBuPZv-33">
          <mxGeometry relative="1" as="geometry" />
        </mxCell>
        <mxCell id="xOnKtEDKV3KdFgjS1WJt-37" style="edgeStyle=orthogonalEdgeStyle;rounded=0;orthogonalLoop=1;jettySize=auto;html=1;exitX=1;exitY=0.5;exitDx=0;exitDy=0;entryX=0.011;entryY=0.95;entryDx=0;entryDy=0;entryPerimeter=0;" edge="1" parent="1" source="JorKWfMErrwngxVBuPZv-28" target="JorKWfMErrwngxVBuPZv-34">
          <mxGeometry relative="1" as="geometry" />
        </mxCell>
        <mxCell id="xOnKtEDKV3KdFgjS1WJt-38" style="edgeStyle=orthogonalEdgeStyle;rounded=0;orthogonalLoop=1;jettySize=auto;html=1;exitX=1;exitY=0.5;exitDx=0;exitDy=0;entryX=0.007;entryY=0.964;entryDx=0;entryDy=0;entryPerimeter=0;" edge="1" parent="1" source="JorKWfMErrwngxVBuPZv-28" target="JorKWfMErrwngxVBuPZv-35">
          <mxGeometry relative="1" as="geometry" />
        </mxCell>
        <mxCell id="JorKWfMErrwngxVBuPZv-28" value="考季" style="shape=hexagon;perimeter=hexagonPerimeter2;whiteSpace=wrap;html=1;fixedSize=1;rounded=1;" parent="1" vertex="1">
          <mxGeometry x="620" y="830" width="110" height="40" as="geometry" />
        </mxCell>
        <mxCell id="JorKWfMErrwngxVBuPZv-31" value="基础一阶" style="shape=step;perimeter=stepPerimeter;whiteSpace=wrap;html=1;fixedSize=1;rounded=1;" parent="1" vertex="1">
          <mxGeometry x="810" y="745" width="115" height="40" as="geometry" />
        </mxCell>
        <mxCell id="JorKWfMErrwngxVBuPZv-33" value="基础二阶" style="shape=step;perimeter=stepPerimeter;whiteSpace=wrap;html=1;fixedSize=1;rounded=1;" parent="1" vertex="1">
          <mxGeometry x="810" y="800" width="115" height="40" as="geometry" />
        </mxCell>
        <mxCell id="JorKWfMErrwngxVBuPZv-34" value="强化阶段" style="shape=step;perimeter=stepPerimeter;whiteSpace=wrap;html=1;fixedSize=1;rounded=1;" parent="1" vertex="1">
          <mxGeometry x="810" y="860" width="115" height="40" as="geometry" />
        </mxCell>
        <mxCell id="JorKWfMErrwngxVBuPZv-35" value="冲点阶段" style="shape=step;perimeter=stepPerimeter;whiteSpace=wrap;html=1;fixedSize=1;rounded=1;" parent="1" vertex="1">
          <mxGeometry x="810" y="920" width="115" height="40" as="geometry" />
        </mxCell>
        <mxCell id="JorKWfMErrwngxVBuPZv-41" value="测试结果" style="shape=parallelogram;perimeter=parallelogramPerimeter;whiteSpace=wrap;html=1;fixedSize=1;" parent="1" vertex="1">
          <mxGeometry x="980" y="351" width="100" height="20" as="geometry" />
        </mxCell>
        <mxCell id="JorKWfMErrwngxVBuPZv-42" value="APP学习进度" style="shape=parallelogram;perimeter=parallelogramPerimeter;whiteSpace=wrap;html=1;fixedSize=1;" parent="1" vertex="1">
          <mxGeometry x="970" y="525" width="100" height="20" as="geometry" />
        </mxCell>
        <mxCell id="JorKWfMErrwngxVBuPZv-43" value="课堂出勤" style="shape=parallelogram;perimeter=parallelogramPerimeter;whiteSpace=wrap;html=1;fixedSize=1;" parent="1" vertex="1">
          <mxGeometry x="970" y="800" width="100" height="20" as="geometry" />
        </mxCell>
        <mxCell id="JorKWfMErrwngxVBuPZv-44" value="学习表现" style="shape=parallelogram;perimeter=parallelogramPerimeter;whiteSpace=wrap;html=1;fixedSize=1;" parent="1" vertex="1">
          <mxGeometry x="970" y="1160" width="100" height="20" as="geometry" />
        </mxCell>
        <mxCell id="JorKWfMErrwngxVBuPZv-45" value="课堂出勤明细查看" style="shape=document;whiteSpace=wrap;html=1;boundedLbl=1;" parent="1" vertex="1">
          <mxGeometry x="1162.5" y="700" width="100" height="20" as="geometry" />
        </mxCell>
        <mxCell id="hmlYSEphnml5yRxJCa9B-1" value="英语" style="shape=document;whiteSpace=wrap;html=1;boundedLbl=1;" parent="1" vertex="1">
          <mxGeometry x="1182.5" y="321" width="50" height="20" as="geometry" />
        </mxCell>
        <mxCell id="hmlYSEphnml5yRxJCa9B-3" value="政治" style="shape=document;whiteSpace=wrap;html=1;boundedLbl=1;" parent="1" vertex="1">
          <mxGeometry x="1182.5" y="351" width="50" height="20" as="geometry" />
        </mxCell>
        <mxCell id="hmlYSEphnml5yRxJCa9B-4" value="数学" style="shape=document;whiteSpace=wrap;html=1;boundedLbl=1;" parent="1" vertex="1">
          <mxGeometry x="1182.5" y="381" width="50" height="20" as="geometry" />
        </mxCell>
        <mxCell id="hmlYSEphnml5yRxJCa9B-8" value="课前规划&lt;br&gt;入门测等级" style="text;html=1;strokeColor=#d79b00;fillColor=#ffe6cc;align=center;verticalAlign=middle;whiteSpace=wrap;rounded=0;" parent="1" vertex="1">
          <mxGeometry x="1172.5" y="278.5" width="70" height="25" as="geometry" />
        </mxCell>
        <mxCell id="hmlYSEphnml5yRxJCa9B-9" value="总完成率" style="shape=document;whiteSpace=wrap;html=1;boundedLbl=1;" parent="1" vertex="1">
          <mxGeometry x="1170" y="435" width="85" height="30" as="geometry" />
        </mxCell>
        <mxCell id="hmlYSEphnml5yRxJCa9B-10" value="课前规划&lt;br&gt;完成率" style="shape=document;whiteSpace=wrap;html=1;boundedLbl=1;" parent="1" vertex="1">
          <mxGeometry x="1185" y="475" width="50" height="40" as="geometry" />
        </mxCell>
        <mxCell id="hmlYSEphnml5yRxJCa9B-11" value="导学&lt;br&gt;完成率" style="shape=document;whiteSpace=wrap;html=1;boundedLbl=1;" parent="1" vertex="1">
          <mxGeometry x="1185" y="515" width="50" height="40" as="geometry" />
        </mxCell>
        <mxCell id="hmlYSEphnml5yRxJCa9B-12" value="导学续学&lt;br&gt;完成率" style="shape=document;whiteSpace=wrap;html=1;boundedLbl=1;" parent="1" vertex="1">
          <mxGeometry x="1185" y="555" width="50" height="40" as="geometry" />
        </mxCell>
        <mxCell id="hmlYSEphnml5yRxJCa9B-13" value="刷题巩固&lt;br&gt;完成率" style="shape=document;whiteSpace=wrap;html=1;boundedLbl=1;" parent="1" vertex="1">
          <mxGeometry x="1185" y="595" width="50" height="40" as="geometry" />
        </mxCell>
        <mxCell id="hmlYSEphnml5yRxJCa9B-14" value="政治&lt;br&gt;完成率" style="shape=trapezoid;perimeter=trapezoidPerimeter;whiteSpace=wrap;html=1;fixedSize=1;" parent="1" vertex="1">
          <mxGeometry x="1355" y="475" width="65" height="30" as="geometry" />
        </mxCell>
        <mxCell id="hmlYSEphnml5yRxJCa9B-16" value="英语&lt;br&gt;完成率" style="shape=trapezoid;perimeter=trapezoidPerimeter;whiteSpace=wrap;html=1;fixedSize=1;" parent="1" vertex="1">
          <mxGeometry x="1355" y="525" width="65" height="30" as="geometry" />
        </mxCell>
        <mxCell id="hmlYSEphnml5yRxJCa9B-17" value="数学&lt;br&gt;完成率" style="shape=trapezoid;perimeter=trapezoidPerimeter;whiteSpace=wrap;html=1;fixedSize=1;" parent="1" vertex="1">
          <mxGeometry x="1355" y="575" width="65" height="30" as="geometry" />
        </mxCell>
        <mxCell id="hmlYSEphnml5yRxJCa9B-21" value="" style="html=1;shadow=0;dashed=0;align=center;verticalAlign=middle;shape=mxgraph.arrows2.arrow;dy=0.6;dx=40;notch=0;" parent="1" vertex="1">
          <mxGeometry x="1255" y="455" width="90" height="190" as="geometry" />
        </mxCell>
        <mxCell id="hmlYSEphnml5yRxJCa9B-25" value="" style="html=1;shadow=0;dashed=0;align=center;verticalAlign=middle;shape=mxgraph.arrows2.arrow;dy=0.67;dx=20;notch=0;" parent="1" vertex="1">
          <mxGeometry x="1090" y="350" width="70" height="20" as="geometry" />
        </mxCell>
        <mxCell id="hmlYSEphnml5yRxJCa9B-28" value="" style="html=1;shadow=0;dashed=0;align=center;verticalAlign=middle;shape=mxgraph.arrows2.arrow;dy=0.67;dx=20;notch=0;" parent="1" vertex="1">
          <mxGeometry x="1090" y="525" width="70" height="20" as="geometry" />
        </mxCell>
        <mxCell id="hmlYSEphnml5yRxJCa9B-30" value="&lt;h1&gt;完成率计算公式&lt;/h1&gt;&lt;p style=&quot;margin: 10px 0px 0px; padding: 0px; color: rgb(23, 43, 77); font-family: -apple-system, system-ui, &amp;quot;Segoe UI&amp;quot;, Roboto, Oxygen, Ubuntu, &amp;quot;Fira Sans&amp;quot;, &amp;quot;Droid Sans&amp;quot;, &amp;quot;Helvetica Neue&amp;quot;, sans-serif; font-size: 14px; background-color: rgb(255, 255, 255);&quot;&gt;数据提取范围是某考季、某阶段&amp;nbsp; （前端注意，需要在切换考季、阶段时展示对应考季节、对应阶段的相关数据）&lt;/p&gt;&lt;p style=&quot;margin: 10px 0px 0px 40px; padding: 0px; color: rgb(23, 43, 77); font-family: -apple-system, system-ui, &amp;quot;Segoe UI&amp;quot;, Roboto, Oxygen, Ubuntu, &amp;quot;Fira Sans&amp;quot;, &amp;quot;Droid Sans&amp;quot;, &amp;quot;Helvetica Neue&amp;quot;, sans-serif; font-size: 14px; background-color: rgb(255, 255, 255);&quot;&gt;课前规划+导学+导学续学+刷题巩固总完成率=（课前规划+导学+导学续学+刷题巩固实际完成任务数）/（课前规划+导学+导学续学+刷题巩固任务总数）&lt;/p&gt;&lt;p style=&quot;margin: 10px 0px 0px 40px; padding: 0px; color: rgb(23, 43, 77); font-family: -apple-system, system-ui, &amp;quot;Segoe UI&amp;quot;, Roboto, Oxygen, Ubuntu, &amp;quot;Fira Sans&amp;quot;, &amp;quot;Droid Sans&amp;quot;, &amp;quot;Helvetica Neue&amp;quot;, sans-serif; font-size: 14px; background-color: rgb(255, 255, 255);&quot;&gt;课前规划完成率=课前规划实际完成任务数/课前规划任务总数&lt;/p&gt;&lt;p style=&quot;margin: 10px 0px 0px 40px; padding: 0px; color: rgb(23, 43, 77); font-family: -apple-system, system-ui, &amp;quot;Segoe UI&amp;quot;, Roboto, Oxygen, Ubuntu, &amp;quot;Fira Sans&amp;quot;, &amp;quot;Droid Sans&amp;quot;, &amp;quot;Helvetica Neue&amp;quot;, sans-serif; font-size: 14px; background-color: rgb(255, 255, 255);&quot;&gt;导学完成率=导学实际完成任务数/导学任务总数&lt;/p&gt;&lt;p style=&quot;margin: 10px 0px 0px 40px; padding: 0px; color: rgb(23, 43, 77); font-family: -apple-system, system-ui, &amp;quot;Segoe UI&amp;quot;, Roboto, Oxygen, Ubuntu, &amp;quot;Fira Sans&amp;quot;, &amp;quot;Droid Sans&amp;quot;, &amp;quot;Helvetica Neue&amp;quot;, sans-serif; font-size: 14px; background-color: rgb(255, 255, 255);&quot;&gt;导学续学完成率=导学续学实际完成任务数/导学续学任务总数&lt;/p&gt;&lt;p style=&quot;margin: 10px 0px 0px 40px; padding: 0px; color: rgb(23, 43, 77); font-family: -apple-system, system-ui, &amp;quot;Segoe UI&amp;quot;, Roboto, Oxygen, Ubuntu, &amp;quot;Fira Sans&amp;quot;, &amp;quot;Droid Sans&amp;quot;, &amp;quot;Helvetica Neue&amp;quot;, sans-serif; font-size: 14px; background-color: rgb(255, 255, 255);&quot;&gt;刷题巩固完成率=刷题巩固实际完成任务数/导学任务总数&lt;/p&gt;&lt;p style=&quot;margin: 10px 0px 0px 40px; padding: 0px; color: rgb(23, 43, 77); font-family: -apple-system, system-ui, &amp;quot;Segoe UI&amp;quot;, Roboto, Oxygen, Ubuntu, &amp;quot;Fira Sans&amp;quot;, &amp;quot;Droid Sans&amp;quot;, &amp;quot;Helvetica Neue&amp;quot;, sans-serif; font-size: 14px; background-color: rgb(255, 255, 255);&quot;&gt;各个科目的各个完成比率：&lt;/p&gt;&lt;p style=&quot;margin: 10px 0px 0px 80px; padding: 0px; color: rgb(23, 43, 77); font-family: -apple-system, system-ui, &amp;quot;Segoe UI&amp;quot;, Roboto, Oxygen, Ubuntu, &amp;quot;Fira Sans&amp;quot;, &amp;quot;Droid Sans&amp;quot;, &amp;quot;Helvetica Neue&amp;quot;, sans-serif; font-size: 14px; background-color: rgb(255, 255, 255);&quot;&gt;课前规划完成率（政治）=课前规划实际完成任务数/课前规划任务总数（政治）&lt;/p&gt;&lt;p style=&quot;margin: 10px 0px 0px 80px; padding: 0px; color: rgb(23, 43, 77); font-family: -apple-system, system-ui, &amp;quot;Segoe UI&amp;quot;, Roboto, Oxygen, Ubuntu, &amp;quot;Fira Sans&amp;quot;, &amp;quot;Droid Sans&amp;quot;, &amp;quot;Helvetica Neue&amp;quot;, sans-serif; font-size: 14px; background-color: rgb(255, 255, 255);&quot;&gt;导学完成率（政治）=导学实际完成任务数/导学任务总数（政治）&lt;/p&gt;&lt;p style=&quot;margin: 10px 0px 0px 80px; padding: 0px; color: rgb(23, 43, 77); font-family: -apple-system, system-ui, &amp;quot;Segoe UI&amp;quot;, Roboto, Oxygen, Ubuntu, &amp;quot;Fira Sans&amp;quot;, &amp;quot;Droid Sans&amp;quot;, &amp;quot;Helvetica Neue&amp;quot;, sans-serif; font-size: 14px; background-color: rgb(255, 255, 255);&quot;&gt;导学续学完成率（政治）=导学续学实际完成任务数/导学续学任务总数（政治）&lt;/p&gt;&lt;p style=&quot;margin: 10px 0px 0px 80px; padding: 0px; color: rgb(23, 43, 77); font-family: -apple-system, system-ui, &amp;quot;Segoe UI&amp;quot;, Roboto, Oxygen, Ubuntu, &amp;quot;Fira Sans&amp;quot;, &amp;quot;Droid Sans&amp;quot;, &amp;quot;Helvetica Neue&amp;quot;, sans-serif; font-size: 14px; background-color: rgb(255, 255, 255);&quot;&gt;刷题巩固完成率（政治）=刷题巩固实际完成任务数/刷题巩固任务总数（政治）&lt;/p&gt;&lt;p style=&quot;margin: 10px 0px 0px 80px; padding: 0px; color: rgb(23, 43, 77); font-family: -apple-system, system-ui, &amp;quot;Segoe UI&amp;quot;, Roboto, Oxygen, Ubuntu, &amp;quot;Fira Sans&amp;quot;, &amp;quot;Droid Sans&amp;quot;, &amp;quot;Helvetica Neue&amp;quot;, sans-serif; font-size: 14px; background-color: rgb(255, 255, 255);&quot;&gt;课前规划完成率（英语）=课前规划实际完成任务数/课前规划任务总数（英语）&lt;/p&gt;&lt;p style=&quot;margin: 10px 0px 0px 80px; padding: 0px; color: rgb(23, 43, 77); font-family: -apple-system, system-ui, &amp;quot;Segoe UI&amp;quot;, Roboto, Oxygen, Ubuntu, &amp;quot;Fira Sans&amp;quot;, &amp;quot;Droid Sans&amp;quot;, &amp;quot;Helvetica Neue&amp;quot;, sans-serif; font-size: 14px; background-color: rgb(255, 255, 255);&quot;&gt;导学完成率（英语）=导学实际完成任务数/导学任务总数（英语）&lt;/p&gt;&lt;p style=&quot;margin: 10px 0px 0px 80px; padding: 0px; color: rgb(23, 43, 77); font-family: -apple-system, system-ui, &amp;quot;Segoe UI&amp;quot;, Roboto, Oxygen, Ubuntu, &amp;quot;Fira Sans&amp;quot;, &amp;quot;Droid Sans&amp;quot;, &amp;quot;Helvetica Neue&amp;quot;, sans-serif; font-size: 14px; background-color: rgb(255, 255, 255);&quot;&gt;导学续学完成率（英语）=导学续学实际完成任务数/导学续学任务总数（英语）&lt;/p&gt;&lt;p style=&quot;margin: 10px 0px 0px 80px; padding: 0px; color: rgb(23, 43, 77); font-family: -apple-system, system-ui, &amp;quot;Segoe UI&amp;quot;, Roboto, Oxygen, Ubuntu, &amp;quot;Fira Sans&amp;quot;, &amp;quot;Droid Sans&amp;quot;, &amp;quot;Helvetica Neue&amp;quot;, sans-serif; font-size: 14px; background-color: rgb(255, 255, 255);&quot;&gt;刷题巩固完成率（英语）=刷题巩固实际完成任务数/刷题巩固任务总数（英语）&lt;/p&gt;&lt;p style=&quot;margin: 10px 0px 0px 80px; padding: 0px; color: rgb(23, 43, 77); font-family: -apple-system, system-ui, &amp;quot;Segoe UI&amp;quot;, Roboto, Oxygen, Ubuntu, &amp;quot;Fira Sans&amp;quot;, &amp;quot;Droid Sans&amp;quot;, &amp;quot;Helvetica Neue&amp;quot;, sans-serif; font-size: 14px; background-color: rgb(255, 255, 255);&quot;&gt;课前规划完成率（数学）=课前规划实际完成任务数/课前规划任务总数（数学）&lt;/p&gt;&lt;p style=&quot;margin: 10px 0px 0px 80px; padding: 0px; color: rgb(23, 43, 77); font-family: -apple-system, system-ui, &amp;quot;Segoe UI&amp;quot;, Roboto, Oxygen, Ubuntu, &amp;quot;Fira Sans&amp;quot;, &amp;quot;Droid Sans&amp;quot;, &amp;quot;Helvetica Neue&amp;quot;, sans-serif; font-size: 14px; background-color: rgb(255, 255, 255);&quot;&gt;导学完成率（数学）=导学实际完成任务数/导学任务总数（数学）&lt;/p&gt;&lt;p style=&quot;margin: 10px 0px 0px 80px; padding: 0px; color: rgb(23, 43, 77); font-family: -apple-system, system-ui, &amp;quot;Segoe UI&amp;quot;, Roboto, Oxygen, Ubuntu, &amp;quot;Fira Sans&amp;quot;, &amp;quot;Droid Sans&amp;quot;, &amp;quot;Helvetica Neue&amp;quot;, sans-serif; font-size: 14px; background-color: rgb(255, 255, 255);&quot;&gt;导学续学完成率（数学）=导学续学实际完成任务数/导学续学任务总数（数学）&lt;/p&gt;&lt;p style=&quot;margin: 10px 0px 0px 80px; padding: 0px; color: rgb(23, 43, 77); font-family: -apple-system, system-ui, &amp;quot;Segoe UI&amp;quot;, Roboto, Oxygen, Ubuntu, &amp;quot;Fira Sans&amp;quot;, &amp;quot;Droid Sans&amp;quot;, &amp;quot;Helvetica Neue&amp;quot;, sans-serif; font-size: 14px; background-color: rgb(255, 255, 255);&quot;&gt;刷题巩固完成率（数学）=刷题巩固实际完成任务数/刷题巩固任务总数（数学）&lt;/p&gt;" style="text;html=1;strokeColor=none;fillColor=none;spacing=5;spacingTop=-20;whiteSpace=wrap;overflow=hidden;rounded=0;" parent="1" vertex="1">
          <mxGeometry x="1387" y="130" width="710" height="570" as="geometry" />
        </mxCell>
        <mxCell id="xOnKtEDKV3KdFgjS1WJt-1" value="打卡率" style="shape=document;whiteSpace=wrap;html=1;boundedLbl=1;" vertex="1" parent="1">
          <mxGeometry x="1182.5" y="720" width="50" height="40" as="geometry" />
        </mxCell>
        <mxCell id="xOnKtEDKV3KdFgjS1WJt-2" value="出勤率" style="shape=document;whiteSpace=wrap;html=1;boundedLbl=1;" vertex="1" parent="1">
          <mxGeometry x="1182.5" y="760" width="50" height="40" as="geometry" />
        </mxCell>
        <mxCell id="xOnKtEDKV3KdFgjS1WJt-3" value="补卡率" style="shape=document;whiteSpace=wrap;html=1;boundedLbl=1;" vertex="1" parent="1">
          <mxGeometry x="1182.5" y="800" width="50" height="40" as="geometry" />
        </mxCell>
        <mxCell id="xOnKtEDKV3KdFgjS1WJt-4" value="连续未打卡次数" style="shape=document;whiteSpace=wrap;html=1;boundedLbl=1;" vertex="1" parent="1">
          <mxGeometry x="1182.5" y="840" width="50" height="40" as="geometry" />
        </mxCell>
        <mxCell id="xOnKtEDKV3KdFgjS1WJt-5" value="迟到次数" style="shape=document;whiteSpace=wrap;html=1;boundedLbl=1;" vertex="1" parent="1">
          <mxGeometry x="1182.5" y="880" width="50" height="40" as="geometry" />
        </mxCell>
        <mxCell id="xOnKtEDKV3KdFgjS1WJt-7" value="英语" style="shape=trapezoid;perimeter=trapezoidPerimeter;whiteSpace=wrap;html=1;fixedSize=1;" vertex="1" parent="1">
          <mxGeometry x="1361" y="730" width="65" height="30" as="geometry" />
        </mxCell>
        <mxCell id="xOnKtEDKV3KdFgjS1WJt-8" value="政治" style="shape=trapezoid;perimeter=trapezoidPerimeter;whiteSpace=wrap;html=1;fixedSize=1;" vertex="1" parent="1">
          <mxGeometry x="1361" y="760" width="65" height="30" as="geometry" />
        </mxCell>
        <mxCell id="xOnKtEDKV3KdFgjS1WJt-9" value="数学" style="shape=trapezoid;perimeter=trapezoidPerimeter;whiteSpace=wrap;html=1;fixedSize=1;" vertex="1" parent="1">
          <mxGeometry x="1361" y="790" width="65" height="30" as="geometry" />
        </mxCell>
        <mxCell id="xOnKtEDKV3KdFgjS1WJt-10" value="管综" style="shape=trapezoid;perimeter=trapezoidPerimeter;whiteSpace=wrap;html=1;fixedSize=1;" vertex="1" parent="1">
          <mxGeometry x="1361" y="820" width="65" height="30" as="geometry" />
        </mxCell>
        <mxCell id="xOnKtEDKV3KdFgjS1WJt-11" value="非管综专业课" style="shape=trapezoid;perimeter=trapezoidPerimeter;whiteSpace=wrap;html=1;fixedSize=1;" vertex="1" parent="1">
          <mxGeometry x="1361" y="850" width="65" height="30" as="geometry" />
        </mxCell>
        <mxCell id="xOnKtEDKV3KdFgjS1WJt-12" value="VIP" style="shape=trapezoid;perimeter=trapezoidPerimeter;whiteSpace=wrap;html=1;fixedSize=1;" vertex="1" parent="1">
          <mxGeometry x="1361" y="880" width="65" height="30" as="geometry" />
        </mxCell>
        <mxCell id="xOnKtEDKV3KdFgjS1WJt-14" value="" style="html=1;shadow=0;dashed=0;align=center;verticalAlign=middle;shape=mxgraph.arrows2.arrow;dy=0.6;dx=40;notch=0;" vertex="1" parent="1">
          <mxGeometry x="1262.5" y="725" width="90" height="190" as="geometry" />
        </mxCell>
        <mxCell id="xOnKtEDKV3KdFgjS1WJt-16" value="&lt;h1&gt;出勤率&lt;/h1&gt;&lt;p style=&quot;margin: 10px 0px 0px; padding: 0px; color: rgb(23, 43, 77); font-family: -apple-system, system-ui, &amp;quot;Segoe UI&amp;quot;, Roboto, Oxygen, Ubuntu, &amp;quot;Fira Sans&amp;quot;, &amp;quot;Droid Sans&amp;quot;, &amp;quot;Helvetica Neue&amp;quot;, sans-serif; font-size: 14px; background-color: rgb(255, 255, 255);&quot;&gt;前提：数据提取范围是某考季、某阶段&amp;nbsp; （前端注意，需要在切换考季、阶段时展示对应考季节、对应阶段的相关数据）&lt;/p&gt;&lt;p style=&quot;margin: 10px 0px 0px 40px; padding: 0px; color: rgb(23, 43, 77); font-family: -apple-system, system-ui, &amp;quot;Segoe UI&amp;quot;, Roboto, Oxygen, Ubuntu, &amp;quot;Fira Sans&amp;quot;, &amp;quot;Droid Sans&amp;quot;, &amp;quot;Helvetica Neue&amp;quot;, sans-serif; font-size: 14px; background-color: rgb(255, 255, 255);&quot;&gt;打卡率 = 打卡次数/应打卡次数&lt;/p&gt;&lt;p style=&quot;margin: 10px 0px 0px 40px; padding: 0px; color: rgb(23, 43, 77); font-family: -apple-system, system-ui, &amp;quot;Segoe UI&amp;quot;, Roboto, Oxygen, Ubuntu, &amp;quot;Fira Sans&amp;quot;, &amp;quot;Droid Sans&amp;quot;, &amp;quot;Helvetica Neue&amp;quot;, sans-serif; font-size: 14px; background-color: rgb(255, 255, 255);&quot;&gt;出勤率 = (打卡次数+补录次数+点名) / 应打卡次数=（应打卡次数-缺勤次数）/应打卡次数&lt;/p&gt;&lt;p style=&quot;margin: 10px 0px 0px 40px; padding: 0px; color: rgb(23, 43, 77); font-family: -apple-system, system-ui, &amp;quot;Segoe UI&amp;quot;, Roboto, Oxygen, Ubuntu, &amp;quot;Fira Sans&amp;quot;, &amp;quot;Droid Sans&amp;quot;, &amp;quot;Helvetica Neue&amp;quot;, sans-serif; font-size: 14px; background-color: rgb(255, 255, 255);&quot;&gt;补卡率 = 补卡次数 / 应打卡次数&lt;/p&gt;&lt;p style=&quot;margin: 10px 0px 0px 40px; padding: 0px; color: rgb(23, 43, 77); font-family: -apple-system, system-ui, &amp;quot;Segoe UI&amp;quot;, Roboto, Oxygen, Ubuntu, &amp;quot;Fira Sans&amp;quot;, &amp;quot;Droid Sans&amp;quot;, &amp;quot;Helvetica Neue&amp;quot;, sans-serif; font-size: 14px; background-color: rgb(255, 255, 255);&quot;&gt;连续未打卡次数=判断学员购买产品的班课或课时包的应打卡日期，自上次打卡后，截止当前日期连续未打卡的次数&lt;/p&gt;&lt;p style=&quot;margin: 10px 0px 0px 40px; padding: 0px; color: rgb(23, 43, 77); font-family: -apple-system, system-ui, &amp;quot;Segoe UI&amp;quot;, Roboto, Oxygen, Ubuntu, &amp;quot;Fira Sans&amp;quot;, &amp;quot;Droid Sans&amp;quot;, &amp;quot;Helvetica Neue&amp;quot;, sans-serif; font-size: 14px; background-color: rgb(255, 255, 255);&quot;&gt;迟到次数=迟到次数&lt;/p&gt;&lt;p style=&quot;margin: 10px 0px 0px 40px; padding: 0px; color: rgb(23, 43, 77); font-family: -apple-system, system-ui, &amp;quot;Segoe UI&amp;quot;, Roboto, Oxygen, Ubuntu, &amp;quot;Fira Sans&amp;quot;, &amp;quot;Droid Sans&amp;quot;, &amp;quot;Helvetica Neue&amp;quot;, sans-serif; font-size: 14px; background-color: rgb(255, 255, 255);&quot;&gt;打卡率 = 打卡次数/应打卡次数（不同科目）&lt;/p&gt;&lt;p style=&quot;margin: 10px 0px 0px 40px; padding: 0px; color: rgb(23, 43, 77); font-family: -apple-system, system-ui, &amp;quot;Segoe UI&amp;quot;, Roboto, Oxygen, Ubuntu, &amp;quot;Fira Sans&amp;quot;, &amp;quot;Droid Sans&amp;quot;, &amp;quot;Helvetica Neue&amp;quot;, sans-serif; font-size: 14px; background-color: rgb(255, 255, 255);&quot;&gt;出勤率 = (打卡次数+补录次数+点名) / 应打卡次数=（应打卡次数-缺勤次数）/应打卡次数（不同科目）&lt;/p&gt;&lt;p style=&quot;margin: 10px 0px 0px 40px; padding: 0px; color: rgb(23, 43, 77); font-family: -apple-system, system-ui, &amp;quot;Segoe UI&amp;quot;, Roboto, Oxygen, Ubuntu, &amp;quot;Fira Sans&amp;quot;, &amp;quot;Droid Sans&amp;quot;, &amp;quot;Helvetica Neue&amp;quot;, sans-serif; font-size: 14px; background-color: rgb(255, 255, 255);&quot;&gt;补卡率 = 补卡次数 / 应打卡次数（不同科目）&lt;/p&gt;&lt;p style=&quot;margin: 10px 0px 0px 40px; padding: 0px; color: rgb(23, 43, 77); font-family: -apple-system, system-ui, &amp;quot;Segoe UI&amp;quot;, Roboto, Oxygen, Ubuntu, &amp;quot;Fira Sans&amp;quot;, &amp;quot;Droid Sans&amp;quot;, &amp;quot;Helvetica Neue&amp;quot;, sans-serif; font-size: 14px; background-color: rgb(255, 255, 255);&quot;&gt;连续未打卡次数=判断学员购买产品的班课或课时包的应打卡日期，自上次打卡后，截止当前日期连续未打卡的次数（不同科目）&lt;/p&gt;&lt;p style=&quot;margin: 10px 0px 0px 40px; padding: 0px; color: rgb(23, 43, 77); font-family: -apple-system, system-ui, &amp;quot;Segoe UI&amp;quot;, Roboto, Oxygen, Ubuntu, &amp;quot;Fira Sans&amp;quot;, &amp;quot;Droid Sans&amp;quot;, &amp;quot;Helvetica Neue&amp;quot;, sans-serif; font-size: 14px; background-color: rgb(255, 255, 255);&quot;&gt;迟到次数=迟到次数（不同科目）&lt;/p&gt;" style="text;html=1;strokeColor=none;fillColor=none;spacing=5;spacingTop=-20;whiteSpace=wrap;overflow=hidden;rounded=0;" vertex="1" parent="1">
          <mxGeometry x="1497" y="715" width="900" height="340" as="geometry" />
        </mxCell>
        <mxCell id="xOnKtEDKV3KdFgjS1WJt-18" value="&lt;h1&gt;出勤率、次数科目说明&lt;/h1&gt;&lt;p style=&quot;margin: 10px 0px 0px 40px; padding: 0px; color: rgb(23, 43, 77); font-family: -apple-system, system-ui, &amp;quot;Segoe UI&amp;quot;, Roboto, Oxygen, Ubuntu, &amp;quot;Fira Sans&amp;quot;, &amp;quot;Droid Sans&amp;quot;, &amp;quot;Helvetica Neue&amp;quot;, sans-serif; font-size: 14px; background-color: rgb(255, 255, 255);&quot;&gt;科目包括英语、政治、数学、管综、非管综专业课、VIP，且各科目取值逻辑不通，具体如下：&lt;/p&gt;&lt;p style=&quot;margin: 10px 0px 0px 40px; padding: 0px; color: rgb(23, 43, 77); font-family: -apple-system, system-ui, &amp;quot;Segoe UI&amp;quot;, Roboto, Oxygen, Ubuntu, &amp;quot;Fira Sans&amp;quot;, &amp;quot;Droid Sans&amp;quot;, &amp;quot;Helvetica Neue&amp;quot;, sans-serif; font-size: 14px; background-color: rgb(255, 255, 255);&quot;&gt;1.英语（英语、英语一、英语二）；&lt;/p&gt;&lt;p style=&quot;margin: 10px 0px 0px 40px; padding: 0px; color: rgb(23, 43, 77); font-family: -apple-system, system-ui, &amp;quot;Segoe UI&amp;quot;, Roboto, Oxygen, Ubuntu, &amp;quot;Fira Sans&amp;quot;, &amp;quot;Droid Sans&amp;quot;, &amp;quot;Helvetica Neue&amp;quot;, sans-serif; font-size: 14px; background-color: rgb(255, 255, 255);&quot;&gt;2.政治；&lt;/p&gt;&lt;p style=&quot;margin: 10px 0px 0px 40px; padding: 0px; color: rgb(23, 43, 77); font-family: -apple-system, system-ui, &amp;quot;Segoe UI&amp;quot;, Roboto, Oxygen, Ubuntu, &amp;quot;Fira Sans&amp;quot;, &amp;quot;Droid Sans&amp;quot;, &amp;quot;Helvetica Neue&amp;quot;, sans-serif; font-size: 14px; background-color: rgb(255, 255, 255);&quot;&gt;3.数学（数学、数学一、数学二、数学三）；&lt;/p&gt;&lt;p style=&quot;margin: 10px 0px 0px 40px; padding: 0px; color: rgb(23, 43, 77); font-family: -apple-system, system-ui, &amp;quot;Segoe UI&amp;quot;, Roboto, Oxygen, Ubuntu, &amp;quot;Fira Sans&amp;quot;, &amp;quot;Droid Sans&amp;quot;, &amp;quot;Helvetica Neue&amp;quot;, sans-serif; font-size: 14px; background-color: rgb(255, 255, 255);&quot;&gt;4.管综（班课中从课程产品名称中获取“管综”或“管理类”；高端产品从产品分组名称中获取“管综”或“管理类”）；&lt;/p&gt;&lt;p style=&quot;margin: 10px 0px 0px 40px; padding: 0px; color: rgb(23, 43, 77); font-family: -apple-system, system-ui, &amp;quot;Segoe UI&amp;quot;, Roboto, Oxygen, Ubuntu, &amp;quot;Fira Sans&amp;quot;, &amp;quot;Droid Sans&amp;quot;, &amp;quot;Helvetica Neue&amp;quot;, sans-serif; font-size: 14px; background-color: rgb(255, 255, 255);&quot;&gt;5.非管综专业课（班课和高端产品均从科目中获取：科目为专业课的减去管综的）；&lt;/p&gt;&lt;p style=&quot;margin: 10px 0px 0px 40px; padding: 0px; color: rgb(23, 43, 77); font-family: -apple-system, system-ui, &amp;quot;Segoe UI&amp;quot;, Roboto, Oxygen, Ubuntu, &amp;quot;Fira Sans&amp;quot;, &amp;quot;Droid Sans&amp;quot;, &amp;quot;Helvetica Neue&amp;quot;, sans-serif; font-size: 14px; background-color: rgb(255, 255, 255);&quot;&gt;6.VIP（高端产品取集团产品分类为“考研一对一”的）&lt;/p&gt;" style="text;html=1;strokeColor=none;fillColor=none;spacing=5;spacingTop=-20;whiteSpace=wrap;overflow=hidden;rounded=0;" vertex="1" parent="1">
          <mxGeometry x="2471" y="850" width="759" height="250" as="geometry" />
        </mxCell>
        <mxCell id="xOnKtEDKV3KdFgjS1WJt-19" value="提问次数" style="shape=document;whiteSpace=wrap;html=1;boundedLbl=1;" vertex="1" parent="1">
          <mxGeometry x="1186.25" y="1190" width="50" height="40" as="geometry" />
        </mxCell>
        <mxCell id="xOnKtEDKV3KdFgjS1WJt-20" value="自习次数" style="shape=document;whiteSpace=wrap;html=1;boundedLbl=1;" vertex="1" parent="1">
          <mxGeometry x="1186.25" y="1085" width="50" height="40" as="geometry" />
        </mxCell>
        <mxCell id="xOnKtEDKV3KdFgjS1WJt-21" value="&lt;h1&gt;次数公式&lt;/h1&gt;&lt;div&gt;&lt;p style=&quot;margin: 10px 0px 0px; padding: 0px; color: rgb(23, 43, 77); font-family: -apple-system, system-ui, &amp;quot;Segoe UI&amp;quot;, Roboto, Oxygen, Ubuntu, &amp;quot;Fira Sans&amp;quot;, &amp;quot;Droid Sans&amp;quot;, &amp;quot;Helvetica Neue&amp;quot;, sans-serif; font-size: 14px; background-color: rgb(255, 255, 255);&quot;&gt;前提：数据提取范围是某考季、某阶段&amp;nbsp; （前端注意，需要在切换考季、阶段时展示对应考季节、对应阶段的相关数据）&lt;/p&gt;&lt;p style=&quot;margin: 10px 0px 0px 40px; padding: 0px; color: rgb(23, 43, 77); font-family: -apple-system, system-ui, &amp;quot;Segoe UI&amp;quot;, Roboto, Oxygen, Ubuntu, &amp;quot;Fira Sans&amp;quot;, &amp;quot;Droid Sans&amp;quot;, &amp;quot;Helvetica Neue&amp;quot;, sans-serif; font-size: 14px; background-color: rgb(255, 255, 255);&quot;&gt;提问次数=APP学员提问次数总和&lt;/p&gt;&lt;p style=&quot;margin: 10px 0px 0px 40px; padding: 0px; color: rgb(23, 43, 77); font-family: -apple-system, system-ui, &amp;quot;Segoe UI&amp;quot;, Roboto, Oxygen, Ubuntu, &amp;quot;Fira Sans&amp;quot;, &amp;quot;Droid Sans&amp;quot;, &amp;quot;Helvetica Neue&amp;quot;, sans-serif; font-size: 14px; background-color: rgb(255, 255, 255);&quot;&gt;自习次数=APP预约自习次数&lt;/p&gt;&lt;/div&gt;" style="text;html=1;strokeColor=none;fillColor=none;spacing=5;spacingTop=-20;whiteSpace=wrap;overflow=hidden;rounded=0;" vertex="1" parent="1">
          <mxGeometry x="1510" y="1095" width="780" height="150" as="geometry" />
        </mxCell>
        <mxCell id="xOnKtEDKV3KdFgjS1WJt-22" value="" style="rounded=0;whiteSpace=wrap;html=1;dashed=1;" vertex="1" parent="1">
          <mxGeometry x="1359.75" y="1065" width="75" height="195" as="geometry" />
        </mxCell>
        <mxCell id="xOnKtEDKV3KdFgjS1WJt-23" value="英语" style="shape=trapezoid;perimeter=trapezoidPerimeter;whiteSpace=wrap;html=1;fixedSize=1;" vertex="1" parent="1">
          <mxGeometry x="1364.75" y="1075" width="65" height="30" as="geometry" />
        </mxCell>
        <mxCell id="xOnKtEDKV3KdFgjS1WJt-24" value="政治" style="shape=trapezoid;perimeter=trapezoidPerimeter;whiteSpace=wrap;html=1;fixedSize=1;" vertex="1" parent="1">
          <mxGeometry x="1364.75" y="1105" width="65" height="30" as="geometry" />
        </mxCell>
        <mxCell id="xOnKtEDKV3KdFgjS1WJt-25" value="数学" style="shape=trapezoid;perimeter=trapezoidPerimeter;whiteSpace=wrap;html=1;fixedSize=1;" vertex="1" parent="1">
          <mxGeometry x="1364.75" y="1135" width="65" height="30" as="geometry" />
        </mxCell>
        <mxCell id="xOnKtEDKV3KdFgjS1WJt-26" value="管综" style="shape=trapezoid;perimeter=trapezoidPerimeter;whiteSpace=wrap;html=1;fixedSize=1;" vertex="1" parent="1">
          <mxGeometry x="1364.75" y="1165" width="65" height="30" as="geometry" />
        </mxCell>
        <mxCell id="xOnKtEDKV3KdFgjS1WJt-27" value="非管综专业课" style="shape=trapezoid;perimeter=trapezoidPerimeter;whiteSpace=wrap;html=1;fixedSize=1;" vertex="1" parent="1">
          <mxGeometry x="1364.75" y="1195" width="65" height="30" as="geometry" />
        </mxCell>
        <mxCell id="xOnKtEDKV3KdFgjS1WJt-28" value="VIP" style="shape=trapezoid;perimeter=trapezoidPerimeter;whiteSpace=wrap;html=1;fixedSize=1;" vertex="1" parent="1">
          <mxGeometry x="1366.25" y="1225" width="65" height="30" as="geometry" />
        </mxCell>
        <mxCell id="xOnKtEDKV3KdFgjS1WJt-29" value="" style="html=1;shadow=0;dashed=0;align=center;verticalAlign=middle;shape=mxgraph.arrows2.arrow;dy=0.6;dx=40;notch=0;" vertex="1" parent="1">
          <mxGeometry x="1263.75" y="1070" width="90" height="190" as="geometry" />
        </mxCell>
        <mxCell id="xOnKtEDKV3KdFgjS1WJt-31" value="" style="html=1;shadow=0;dashed=0;align=center;verticalAlign=middle;shape=mxgraph.arrows2.arrow;dy=0.67;dx=20;notch=0;" vertex="1" parent="1">
          <mxGeometry x="1080" y="800" width="70" height="20" as="geometry" />
        </mxCell>
        <mxCell id="xOnKtEDKV3KdFgjS1WJt-32" value="" style="html=1;shadow=0;dashed=0;align=center;verticalAlign=middle;shape=mxgraph.arrows2.arrow;dy=0.67;dx=20;notch=0;" vertex="1" parent="1">
          <mxGeometry x="1080" y="1165" width="70" height="20" as="geometry" />
        </mxCell>
        <mxCell id="xOnKtEDKV3KdFgjS1WJt-34" value="" style="strokeWidth=2;html=1;shape=mxgraph.flowchart.annotation_2;align=left;labelPosition=right;pointerEvents=1;" vertex="1" parent="1">
          <mxGeometry x="920" y="360" width="50" height="810" as="geometry" />
        </mxCell>
      </root>
    </mxGraphModel>
  </diagram>
</mxfile>
